HIERARCHY
ROOT Root
{
  OFFSET 0.0 0.0 0.0
  CHANNELS 6 Xposition Yposition Zposition Zrotation Yrotation Xrotation
  JOINT Hips
  {
    OFFSET 0.0 100.0 0.0
    CHANNELS 6 Xposition Yposition Zposition Zrotation Yrotation Xrotation
    JOINT Spine1
    {
      OFFSET -0.013727 5.003763 -0.053727
      CHANNELS 3 Zrotation Yrotation Xrotation
      JOINT Spine2
      {
        OFFSET -0.0 7.125301 -0.029825
        CHANNELS 3 Zrotation Yrotation Xrotation
        JOINT Chest
        {
          OFFSET -1e-06 7.550063 -0.815971
          CHANNELS 3 Zrotation Yrotation Xrotation
          JOINT Neck1
          {
            OFFSET -0.181677 26.311295 -0.553348
            CHANNELS 3 Zrotation Yrotation Xrotation
            JOINT Neck2
            {
              OFFSET -3e-06 7.709397 2.302585
              CHANNELS 3 Zrotation Yrotation Xrotation
              JOINT Head
              {
                OFFSET -5e-06 6.128916 1.953709
                CHANNELS 3 Zrotation Yrotation Xrotation
                JOINT HeadEnd
                {
                  OFFSET 0.003598 16.065403 -1.835379
                  CHANNELS 3 Zrotation Yrotation Xrotation
                }
                JOINT Jaw
                {
                  OFFSET 0.002637 0.475592 3.094941
                  CHANNELS 3 Zrotation Yrotation Xrotation
                }
                JOINT LeftEye
                {
                  OFFSET 3.206381 5.380205 7.586883
                  CHANNELS 3 Zrotation Yrotation Xrotation
                }
                JOINT RightEye
                {
                  OFFSET -3.22244 5.361869 7.558234
                  CHANNELS 3 Zrotation Yrotation Xrotation
                }
              }
            }
          }
          JOINT LeftShoulder
          {
            OFFSET 1.621652 23.237164 5.113413
            CHANNELS 3 Zrotation Yrotation Xrotation
            JOINT LeftArm
            {
              OFFSET 14.919846 2e-06 -5.502326
              CHANNELS 3 Zrotation Yrotation Xrotation
              JOINT LeftForeArm
              {
                OFFSET 28.739307 0.0 -0.002588
                CHANNELS 3 Zrotation Yrotation Xrotation
                JOINT LeftHand
                {
                  OFFSET 27.093981 -1e-06 0.002609
                  CHANNELS 3 Zrotation Yrotation Xrotation
                  JOINT LeftHandThumb1
                  {
                    OFFSET 2.276482 -1.392045 3.191413
                    CHANNELS 3 Zrotation Yrotation Xrotation
                    JOINT LeftHandThumb2
                    {
                      OFFSET 4.012836 -1.828127 1.641654
                      CHANNELS 3 Zrotation Yrotation Xrotation
                      JOINT LeftHandThumb3
                      {
                        OFFSET 2.798515 0.0 -3e-06
                        CHANNELS 3 Zrotation Yrotation Xrotation
                        JOINT LeftHandThumbEnd
                        {
                          OFFSET 3.180793 -4e-06 4e-06
                          CHANNELS 3 Zrotation Yrotation Xrotation
                        }
                      }
                    }
                  }
                  JOINT LeftHandIndex1
                  {
                    OFFSET 3.247555 -0.531998 2.296169
                    CHANNELS 3 Zrotation Yrotation Xrotation
                    JOINT LeftHandIndex2
                    {
                      OFFSET 6.364578 0.01206 0.1786
                      CHANNELS 3 Zrotation Yrotation Xrotation
                      JOINT LeftHandIndex3
                      {
                        OFFSET 3.662364 0.0 0.0
                        CHANNELS 3 Zrotation Yrotation Xrotation
                        JOINT LeftHandIndex4
                        {
                          OFFSET 2.329242 4e-06 4e-06
                          CHANNELS 3 Zrotation Yrotation Xrotation
                          JOINT LeftHandIndexEnd
                          {
                            OFFSET 2.759615 -0.180537 -0.113024
                            CHANNELS 3 Zrotation Yrotation Xrotation
                          }
                        }
                      }
                    }
                  }
                  JOINT LeftHandMiddle1
                  {
                    OFFSET 3.163495 0.240981 1.000332
                    CHANNELS 3 Zrotation Yrotation Xrotation
                    JOINT LeftHandMiddle2
                    {
                      OFFSET 6.19078 -0.259278 -1.002548
                      CHANNELS 3 Zrotation Yrotation Xrotation
                      JOINT LeftHandMiddle3
                      {
                        OFFSET 4.35652 -4e-06 -1e-06
                        CHANNELS 3 Zrotation Yrotation Xrotation
                        JOINT LeftHandMiddle4
                        {
                          OFFSET 2.996877 -8e-06 0.0
                          CHANNELS 3 Zrotation Yrotation Xrotation
                          JOINT LeftHandMiddleEnd
                          {
                            OFFSET 2.304287 -0.294569 -0.031741
                            CHANNELS 3 Zrotation Yrotation Xrotation
                          }
                        }
                      }
                    }
                  }
                  JOINT LeftHandRing1
                  {
                    OFFSET 2.882643 -0.053652 -0.322543
                    CHANNELS 3 Zrotation Yrotation Xrotation
                    JOINT LeftHandRing2
                    {
                      OFFSET 5.854541 -0.486202 -1.373841
                      CHANNELS 3 Zrotation Yrotation Xrotation
                      JOINT LeftHandRing3
                      {
                        OFFSET 4.350578 0.0 3e-06
                        CHANNELS 3 Zrotation Yrotation Xrotation
                        JOINT LeftHandRing4
                        {
                          OFFSET 2.651321 7e-06 2e-06
                          CHANNELS 3 Zrotation Yrotation Xrotation
                          JOINT LeftHandRingEnd
                          {
                            OFFSET 1.936105 0.077687 -7.1e-05
                            CHANNELS 3 Zrotation Yrotation Xrotation
                          }
                        }
                      }
                    }
                  }
                  JOINT LeftHandPinky1
                  {
                    OFFSET 2.8655 -0.310005 -1.600378
                    CHANNELS 3 Zrotation Yrotation Xrotation
                    JOINT LeftHandPinky2
                    {
                      OFFSET 5.087849 -1.331141 -1.77123
                      CHANNELS 3 Zrotation Yrotation Xrotation
                      JOINT LeftHandPinky3
                      {
                        OFFSET 3.070974 4e-06 0.0
                        CHANNELS 3 Zrotation Yrotation Xrotation
                        JOINT LeftHandPinky4
                        {
                          OFFSET 1.549672 0.0 1e-06
                          CHANNELS 3 Zrotation Yrotation Xrotation
                          JOINT LeftHandPinkyEnd
                          {
                            OFFSET 1.944893 -0.157802 0.057219
                            CHANNELS 3 Zrotation Yrotation Xrotation
                          }
                        }
                      }
                    }
                  }
                }
              }
            }
          }
          JOINT RightShoulder
          {
            OFFSET -1.380118 23.180309 5.214158
            CHANNELS 3 Zrotation Yrotation Xrotation
            JOINT RightArm
            {
              OFFSET -15.037196 1.2e-05 -5.545604
              CHANNELS 3 Zrotation Yrotation Xrotation
              JOINT RightForeArm
              {
                OFFSET -28.736639 2e-06 -0.002597
                CHANNELS 3 Zrotation Yrotation Xrotation
                JOINT RightHand
                {
                  OFFSET -27.133619 -0.0 0.002613
                  CHANNELS 3 Zrotation Yrotation Xrotation
                  JOINT RightHandThumb1
                  {
                    OFFSET -2.274032 -1.383988 3.163127
                    CHANNELS 3 Zrotation Yrotation Xrotation
                    JOINT RightHandThumb2
                    {
                      OFFSET -4.011429 -1.827466 1.640914
                      CHANNELS 3 Zrotation Yrotation Xrotation
                      JOINT RightHandThumb3
                      {
                        OFFSET -2.794935 -4e-06 -3e-06
                        CHANNELS 3 Zrotation Yrotation Xrotation
                        JOINT RightHandThumbEnd
                        {
                          OFFSET -3.183852 4e-06 1e-06
                          CHANNELS 3 Zrotation Yrotation Xrotation
                        }
                      }
                    }
                  }
                  JOINT RightHandIndex1
                  {
                    OFFSET -3.253266 -0.520057 2.282866
                    CHANNELS 3 Zrotation Yrotation Xrotation
                    JOINT RightHandIndex2
                    {
                      OFFSET -6.341917 0.012471 0.178266
                      CHANNELS 3 Zrotation Yrotation Xrotation
                      JOINT RightHandIndex3
                      {
                        OFFSET -3.654871 -8e-06 -0.0
                        CHANNELS 3 Zrotation Yrotation Xrotation
                        JOINT RightHandIndex4
                        {
                          OFFSET -2.327586 0.0 1e-06
                          CHANNELS 3 Zrotation Yrotation Xrotation
                          JOINT RightHandIndexEnd
                          {
                            OFFSET -2.76179 -0.180656 -0.113078
                            CHANNELS 3 Zrotation Yrotation Xrotation
                          }
                        }
                      }
                    }
                  }
                  JOINT RightHandMiddle1
                  {
                    OFFSET -3.168106 0.246593 1.00103
                    CHANNELS 3 Zrotation Yrotation Xrotation
                    JOINT RightHandMiddle2
                    {
                      OFFSET -6.180828 -0.258836 -1.000895
                      CHANNELS 3 Zrotation Yrotation Xrotation
                      JOINT RightHandMiddle3
                      {
                        OFFSET -4.348901 0.0 -0.0
                        CHANNELS 3 Zrotation Yrotation Xrotation
                        JOINT RightHandMiddle4
                        {
                          OFFSET -3.00024 -4e-06 -2e-06
                          CHANNELS 3 Zrotation Yrotation Xrotation
                          JOINT RightHandMiddleEnd
                          {
                            OFFSET -2.30252 -0.29437 -0.031706
                            CHANNELS 3 Zrotation Yrotation Xrotation
                          }
                        }
                      }
                    }
                  }
                  JOINT RightHandRing1
                  {
                    OFFSET -2.88569 -0.067952 -0.308858
                    CHANNELS 3 Zrotation Yrotation Xrotation
                    JOINT RightHandRing2
                    {
                      OFFSET -5.854198 -0.48613 -1.373731
                      CHANNELS 3 Zrotation Yrotation Xrotation
                      JOINT RightHandRing3
                      {
                        OFFSET -4.33881 -4e-06 -0.0
                        CHANNELS 3 Zrotation Yrotation Xrotation
                        JOINT RightHandRing4
                        {
                          OFFSET -2.654903 -4e-06 4e-06
                          CHANNELS 3 Zrotation Yrotation Xrotation
                          JOINT RightHandRingEnd
                          {
                            OFFSET -1.933568 0.077527 -5.2e-05
                            CHANNELS 3 Zrotation Yrotation Xrotation
                          }
                        }
                      }
                    }
                  }
                  JOINT RightHandPinky1
                  {
                    OFFSET -2.866425 -0.342796 -1.584145
                    CHANNELS 3 Zrotation Yrotation Xrotation
                    JOINT RightHandPinky2
                    {
                      OFFSET -5.091371 -1.332055 -1.772385
                      CHANNELS 3 Zrotation Yrotation Xrotation
                      JOINT RightHandPinky3
                      {
                        OFFSET -3.062664 -4e-06 1e-06
                        CHANNELS 3 Zrotation Yrotation Xrotation
                        JOINT RightHandPinky4
                        {
                          OFFSET -1.546529 4e-06 -2e-06
                          CHANNELS 3 Zrotation Yrotation Xrotation
                          JOINT RightHandPinkyEnd
                          {
                            OFFSET -1.945119 -0.157718 0.057211
                            CHANNELS 3 Zrotation Yrotation Xrotation
                          }
                        }
                      }
                    }
                  }
                }
              }
            }
          }
        }
      }
    }
    JOINT LeftLeg
    {
      OFFSET 10.043214 -8.434526 2.595655
      CHANNELS 3 Zrotation Yrotation Xrotation
      JOINT LeftShin
      {
        OFFSET -1e-06 -43.221752 -0.802913
        CHANNELS 3 Zrotation Yrotation Xrotation
        JOINT LeftFoot
        {
          OFFSET 1e-06 -42.155094 -3.481523
          CHANNELS 3 Zrotation Yrotation Xrotation
          JOINT LeftToeBase
          {
            OFFSET 0.0 -5.059472 13.231529
            CHANNELS 3 Zrotation Yrotation Xrotation
            JOINT LeftToeEnd
            {
              OFFSET -0.009607 -1.647619 6.513017
              CHANNELS 3 Zrotation Yrotation Xrotation
            }
          }
        }
      }
    }
    JOINT RightLeg
    {
      OFFSET -10.047278 -8.29526 2.620317
      CHANNELS 3 Zrotation Yrotation Xrotation
      JOINT RightShin
      {
        OFFSET 1e-06 -43.362206 -0.805556
        CHANNELS 3 Zrotation Yrotation Xrotation
        JOINT RightFoot
        {
          OFFSET 2e-06 -42.117393 -3.478398
          CHANNELS 3 Zrotation Yrotation Xrotation
          JOINT RightToeBase
          {
            OFFSET -0.0 -5.079609 13.284196
            CHANNELS 3 Zrotation Yrotation Xrotation
            JOINT RightToeEnd
            {
              OFFSET 0.009532 -1.634378 6.460591
              CHANNELS 3 Zrotation Yrotation Xrotation
            }
          }
        }
      }
    }
  }
}
MOTION
Frames: 4
Frame Time: 0.03333333333333333
0.0 0.0 0.0 0.0 -0.0 0.0 1.804052 49.441044 3.57007 0.525948 0.75386 49.762295 1.984104 0.713777 16.9582 -0.229862 -1.160037 0.959261 -0.368615 -3.668709 14.352632 -0.818188 2.822308 -10.933876 -1.230121 -1.047548 -3.506357 -3.11343 -1.248044 -6.21243 7.7e-05 -2.2e-05 7e-06 -0.034001 0.02383 -0.242156 0.693071 -3.657012 -10.519789 -0.768867 3.730205 -10.535153 7.06856 -29.413431 7.291895 -11.498919 -44.964592 -21.772327 1.197094 -18.057854 0.025006 66.301407 3.900658 -10.430132 -5.882114 9.861293 0.70259 -10.936885 -0.360575 7.156216 -1e-06 8.77483 -2e-06 -15.706805 17.630028 6.386119 -1.844035 2.498506 -2.507279 -10.163614 4.67895 4.621114 -20.976053 2e-06 7e-06 -21.226313 2.451705 -3.594 1e-06 -6e-06 -0.0 -1.362683 2.240802 -0.746324 -21.33494 0.584913 3.00833 -13.821232 0.0 6e-06 -23.887201 -0.249073 -0.839481 -59.56002 2.469514 -1.701535 -0.294025 1.679689 0.833256 -14.218225 0.093217 1.300586 -34.212086 -0.287556 0.967177 -20.033239 0.964542 1.212846 -0.0 0.0 -1e-06 -3.440392 0.788235 0.501657 -15.928206 -3.16731 2.999715 -6.338833 -0.0 2e-06 -18.123466 3.648189 -4.905674 -5e-06 0.0 -3e-06 7.029204 30.441061 11.119307 37.87571 42.819756 -5.960078 1.414335 25.115133 0.789097 -59.986019 26.088266 9.497569 2.243542 -5.255039 -3.180159 14.282904 -0.826598 6.952507 -0.0 -12.69061 1e-06 16.935873 -18.23107 1.953367 1.665668 -1.955923 -2.878301 4.727805 -4.17059 4.993927 11.020535 0.0 -0.0 12.109061 -3.735719 -2.866787 0.0 -0.0 -1e-06 1.291988 -1.92855 -1.498089 14.800142 0.567465 3.86561 14.242586 -1.34174 -6.660662 19.631987 0.143921 -0.648248 50.062668 -0.763336 -6.565289 0.353029 -1.511151 -0.031939 20.222815 3.684306 2.316633 18.787292 0.0 -3e-06 10.751639 -0.479871 1.397905 -0.0 -0.0 -0.0 3.273809 0.305946 -0.580111 21.486832 11.830373 2.266132 8.162935 -0.0 -2e-06 18.399103 -3.798989 -4.940581 3e-06 -0.0 -1e-06 7.202155 -0.184705 -33.943897 -0.355155 -1.61695 83.140709 3.083707 10.508286 29.247478 2.005159 -2.027315 -3.26712 -0.0 -0.0 2e-06 0.704853 2.720686 -57.456352 -0.263219 -0.256256 104.110481 18.57008 0.456847 41.207253 -1.846565 0.810808 4.495341 -0.0 -0.0 -1e-06 
0.0 0.0 0.0 0.0 -0.0 0.0 1.624154 49.752804 4.363773 0.201071 1.457104 49.865822 2.063146 0.859944 16.939732 -0.283041 -0.968929 0.823282 -0.558224 -3.603126 14.324183 -0.572475 2.684249 -11.000454 -1.052843 -1.169261 -3.531412 -2.676484 -1.437537 -6.571095 7.7e-05 -2.2e-05 5e-06 -0.058952 0.032884 -0.256725 0.641936 -3.645013 -10.529746 -0.76582 3.732399 -10.547173 6.925731 -29.722551 7.440915 -11.833132 -45.884594 -21.585974 1.081939 -16.725992 0.030907 66.52771 2.200025 -10.637784 -5.882106 9.861287 0.70259 -10.936874 -0.360575 7.156209 -0.0 8.774828 -1e-06 -15.673969 17.611301 6.147703 -1.844032 2.498505 -2.507277 -10.163601 4.678944 4.621111 -20.976028 -1e-06 5e-06 -21.226292 2.4517 -3.593999 1e-06 -6e-06 1e-06 -1.362682 2.240798 -0.746324 -21.334917 0.584909 3.008326 -13.821218 -1e-06 5e-06 -23.887173 -0.249075 -0.839481 -59.338463 2.493162 -1.754755 -0.294025 1.679689 0.833256 -14.218212 0.093215 1.300583 -34.212051 -0.28756 0.967175 -20.033218 0.96454 1.212846 -0.0 0.0 -0.0 -3.440389 0.788235 0.501656 -15.928189 -3.167311 2.999711 -6.338829 -1e-06 1e-06 -18.123447 3.648185 -4.905671 -4e-06 0.0 -2e-06 6.838316 29.791168 11.281192 36.635792 42.637535 -9.794726 1.498338 31.863844 0.68242 -57.33638 28.461288 10.125012 2.243543 -5.255038 -3.180159 14.282896 -0.826594 6.952505 -1e-06 -12.690603 -1e-06 16.800915 -18.391621 2.366338 1.665668 -1.955923 -2.878299 4.7278 -4.170587 4.993925 11.020528 2e-06 -1e-06 12.109056 -3.735717 -2.866783 0.0 -1e-06 1e-06 1.291985 -1.92855 -1.49809 14.800132 0.567468 3.86561 14.242577 -1.34174 -6.660658 19.631973 0.143922 -0.648244 50.397659 -0.795923 -6.452227 0.353031 -1.511152 -0.031939 20.222797 3.684309 2.316633 18.787279 3e-06 0.0 10.751631 -0.479869 1.397907 0.0 0.0 0.0 3.273808 0.305948 -0.58011 21.486818 11.830374 2.266137 8.162929 2e-06 -0.0 18.399088 -3.798986 -4.940577 3e-06 0.0 -1e-06 8.444589 0.058199 -36.21487 -0.407087 -1.652133 85.785866 3.713074 10.215979 28.659033 1.965169 -2.036118 -2.990159 0.0 -0.0 2e-06 1.607305 2.763203 -56.45076 -0.323029 -0.428367 102.578354 19.045645 0.418467 41.508717 -1.847344 0.785742 4.156285 -0.0 -0.0 -2e-06 
0.0 0.0 0.0 0.0 -0.0 0.0 1.313381 50.037491 5.796789 0.214467 1.875358 49.716621 1.973144 0.985106 17.000948 -0.346518 -0.846442 0.756573 -0.893229 -3.562692 14.366188 -0.285155 2.604 -11.043856 -1.025 -1.397063 -3.576259 -2.365677 -1.605202 -6.951387 7.7e-05 -2.3e-05 6e-06 -0.054467 0.02966 -0.260343 0.627298 -3.65086 -10.569734 -0.740648 3.72764 -10.574535 6.658608 -30.271313 7.66476 -12.114873 -46.301971 -21.055517 1.094623 -15.819279 0.029476 66.729866 1.244974 -10.873665 -5.88211 9.861292 0.702588 -10.936877 -0.360575 7.15621 -0.0 8.77483 -1e-06 -15.652854 17.641716 6.02035 -1.844032 2.498505 -2.507279 -10.163607 4.678946 4.621109 -20.976038 -1e-06 3e-06 -21.226301 2.451699 -3.593999 1e-06 -6e-06 -0.0 -1.362682 2.240799 -0.746324 -21.334929 0.584911 3.008326 -13.821225 -1e-06 2e-06 -23.887184 -0.249077 -0.839484 -59.241203 2.490037 -1.689475 -0.294025 1.679688 0.833257 -14.218215 0.093213 1.300583 -34.21207 -0.287561 0.967173 -20.033226 0.964538 1.212845 -0.0 0.0 -1e-06 -3.440391 0.788232 0.501656 -15.928198 -3.16731 2.999709 -6.338832 -1e-06 1e-06 -18.123457 3.648184 -4.905672 -4e-06 1e-06 -3e-06 6.117946 29.329355 11.178718 34.888874 42.551559 -14.029405 1.823743 38.299541 0.718912 -54.563263 30.232952 12.124121 2.243541 -5.255039 -3.180159 14.282896 -0.826595 6.952505 -1e-06 -12.690607 -2e-06 16.860857 -18.497189 2.519824 1.665665 -1.955922 -2.878299 4.727799 -4.170587 4.993925 11.020528 3e-06 1e-06 12.109056 -3.735718 -2.866784 -0.0 -0.0 -1e-06 1.291986 -1.92855 -1.49809 14.800132 0.567469 3.865609 14.242576 -1.341739 -6.660658 19.631969 0.143924 -0.648245 50.585194 -0.884604 -6.493954 0.353028 -1.511151 -0.03194 20.222797 3.684311 2.316634 18.787281 4e-06 1e-06 10.751631 -0.479869 1.397908 -0.0 1e-06 -0.0 3.273809 0.305946 -0.580111 21.48682 11.830376 2.266139 8.16293 2e-06 1e-06 18.399088 -3.798986 -4.940576 3e-06 -1e-06 -1e-06 8.852444 0.046561 -38.643291 -0.452017 -1.547692 88.841019 4.253066 10.108752 28.512579 1.950898 -2.045666 -2.920019 0.0 0.0 4e-06 2.275852 2.450801 -54.327091 -0.31796 -0.515194 100.369377 19.226236 1.032425 41.632446 -1.804256 0.782662 3.631375 -0.0 -0.0 -2e-06 
0.0 0.0 0.0 0.0 -0.0 0.0 1.045446 50.259602 7.094736 0.449227 2.015082 49.466148 1.792521 1.074635 17.103031 -0.430212 -0.740779 0.783474 -1.29491 -3.525783 14.381834 -0.033459 2.504419 -11.144767 -1.122386 -1.57152 -3.583457 -2.179897 -1.768038 -7.311392 7.7e-05 -2.2e-05 5e-06 -0.05028 0.024793 -0.257784 0.623889 -3.663176 -10.59923 -0.727959 3.727474 -10.590342 6.153892 -30.823149 7.898355 -12.4206 -46.483265 -20.378376 1.109149 -15.245551 0.042229 67.257439 0.596585 -10.770258 -5.88211 9.861292 0.702591 -10.93688 -0.360574 7.156213 -1e-06 8.77483 -1e-06 -15.523684 17.676723 6.022899 -1.844034 2.498505 -2.507279 -10.163607 4.678947 4.621113 -20.976038 0.0 6e-06 -21.226301 2.451704 -3.594002 1e-06 -6e-06 -0.0 -1.362682 2.240799 -0.746323 -21.334929 0.584914 3.008327 -13.821223 -1e-06 4e-06 -23.887186 -0.249074 -0.839483 -59.124794 2.486286 -1.626693 -0.294026 1.679688 0.833256 -14.218218 0.093216 1.300583 -34.212074 -0.287556 0.967173 -20.03323 0.964542 1.212845 -0.0 0.0 -1e-06 -3.440391 0.788234 0.501657 -15.928196 -3.167311 2.999711 -6.338831 -0.0 2e-06 -18.123459 3.648188 -4.905673 -4e-06 0.0 -4e-06 4.856528 29.05485 10.678481 32.292675 42.918964 -18.769165 2.20868 43.217934 0.79116 -52.480541 31.490198 13.986224 2.243543 -5.255039 -3.180159 14.282897 -0.826593 6.952503 -0.0 -12.690609 -4e-06 16.863722 -18.509394 2.63548 1.665667 -1.955922 -2.8783 4.727802 -4.170588 4.993925 11.020531 4e-06 -2e-06 12.109058 -3.735716 -2.866786 0.0 -0.0 1e-06 1.291986 -1.92855 -1.49809 14.800134 0.56747 3.865608 14.242577 -1.341735 -6.660662 19.631973 0.143927 -0.648246 50.69215 -0.955946 -6.550856 0.353029 -1.511151 -0.03194 20.222801 3.684313 2.316631 18.787283 6e-06 -0.0 10.751633 -0.479867 1.397906 -0.0 -0.0 0.0 3.273807 0.305947 -0.580111 21.486822 11.830379 2.266135 8.16293 3e-06 -0.0 18.399088 -3.798982 -4.940577 3e-06 0.0 -0.0 8.497509 -0.181515 -41.142933 -0.467417 -1.296202 92.243828 4.504385 9.774102 28.70118 1.946306 -2.081771 -2.655504 0.0 -1e-06 4e-06 2.501172 2.027074 -52.311539 -0.303551 -0.572907 98.452545 19.217363 1.712463 41.724525 -1.759228 0.774905 3.182802 -1e-06 0.0 -2e-06 
